<?xml version="1.0" standalone="no"?>
<!DOCTYPE svg PUBLIC "-//W3C//DTD SVG 20010904//EN"
 "http://www.w3.org/TR/2001/REC-SVG-20010904/DTD/svg10.dtd">
<svg version="1.0" xmlns="http://www.w3.org/2000/svg"
 width="700.000000pt" height="700.000000pt" viewBox="0 0 700.000000 700.000000"
 preserveAspectRatio="xMidYMid meet">
<metadata>
Created by potrace 1.11, written by Peter Selinger 2001-2013
</metadata>
<g transform="translate(0.000000,700.000000) scale(0.100000,-0.100000)"
fill="#000000" stroke="none">
<path d="M3095 6839 c-27 -3 -72 -9 -100 -13 -47 -5 -124 -18 -187 -31 -16 -3
-38 -7 -50 -9 -13 -2 -43 -9 -68 -16 -25 -7 -53 -14 -62 -15 -148 -29 -459
-145 -669 -251 -196 -98 -466 -270 -584 -373 -17 -14 -51 -42 -75 -61 -71 -56
-236 -217 -334 -326 -79 -86 -261 -315 -291 -365 -5 -9 -30 -49 -55 -88 -83
-133 -100 -162 -158 -274 -173 -335 -298 -731 -338 -1062 -2 -22 -6 -53 -8
-70 -20 -143 -27 -472 -13 -656 6 -85 49 -366 63 -411 3 -9 7 -26 9 -39 42
-215 184 -598 312 -839 441 -828 1226 -1448 2126 -1680 84 -21 169 -41 189
-44 21 -3 57 -10 80 -15 24 -6 66 -13 93 -16 28 -3 59 -8 70 -10 148 -29 698
-23 877 10 9 2 38 7 65 11 55 8 47 6 173 33 386 81 725 217 1050 419 676 422
1087 957 1163 1513 14 96 15 309 3 385 -6 41 -6 42 36 67 121 72 230 234 313
467 58 162 133 508 151 695 3 39 8 78 9 87 8 39 18 273 18 398 0 217 -21 484
-48 621 -3 13 -8 39 -11 58 -8 50 -58 217 -83 278 -52 130 -126 244 -200 310
-84 73 -250 125 -390 122 -141 -3 -238 -36 -366 -127 -64 -45 -195 -167 -255
-238 -330 -388 -421 -467 -579 -504 -88 -21 -272 0 -406 45 -67 23 -193 86
-252 126 -47 31 -147 113 -190 156 l-22 21 52 4 c29 2 179 5 334 7 l283 3 -15
-28 c-22 -43 -29 -111 -16 -155 51 -169 291 -188 370 -29 24 47 27 130 6 169
l-16 31 43 0 c126 1 259 37 318 87 34 29 40 40 40 73 0 57 -17 86 -74 124 -48
31 -167 82 -215 91 -13 2 -30 6 -39 9 -19 6 -65 13 -157 23 -110 13 -420 5
-485 -12 -8 -2 -37 -6 -65 -10 -133 -16 -358 -77 -454 -122 -97 -46 -161 -120
-161 -187 0 -49 172 -235 315 -341 151 -112 349 -197 530 -229 47 -8 130 -13
200 -12 148 3 225 27 347 109 118 79 193 153 405 403 217 254 337 338 504 351
194 15 338 -57 425 -214 49 -87 112 -265 130 -368 42 -247 55 -378 56 -605 1
-135 -8 -346 -16 -415 -2 -16 -7 -59 -11 -95 -4 -36 -9 -72 -10 -82 -2 -9 -7
-38 -11 -65 -17 -118 -53 -277 -91 -402 -32 -108 -44 -140 -95 -251 -35 -76
-107 -177 -148 -210 -36 -29 -41 -30 -46 -13 -86 267 -237 446 -376 446 -77 0
-138 -77 -138 -173 1 -203 146 -397 343 -456 26 -8 47 -20 48 -27 0 -7 2 -23
4 -37 12 -75 5 -312 -10 -394 -86 -457 -413 -887 -955 -1258 -278 -190 -551
-319 -882 -416 -138 -41 -386 -96 -488 -108 -30 -3 -58 -8 -62 -11 -4 -2 -65
-7 -135 -10 l-128 -6 -4 114 c-14 381 -3 709 34 974 25 177 28 194 51 293 28
124 14 223 -54 382 -46 110 -106 208 -180 295 l-59 71 17 54 c9 30 58 147 108
260 169 384 204 485 204 605 1 203 -124 290 -423 294 -144 2 -174 11 -189 57
-12 36 -8 110 10 179 6 22 12 47 14 55 31 118 135 355 309 707 242 489 287
608 305 823 12 152 5 615 -12 815 -2 22 -7 81 -11 130 -4 50 -9 99 -11 110 -3
11 -6 41 -9 66 -14 132 -38 212 -68 228 -25 13 -410 22 -492 10z m401 -211 c4
-29 8 -66 9 -83 9 -112 17 -194 20 -220 2 -16 7 -79 10 -140 4 -60 8 -132 10
-160 5 -64 6 -500 1 -540 -12 -100 -36 -205 -56 -245 -5 -8 -32 -71 -61 -140
-29 -69 -93 -206 -142 -305 -49 -99 -102 -207 -117 -240 -15 -33 -47 -100 -70
-150 -74 -157 -158 -375 -175 -453 -3 -12 -7 -32 -10 -44 -2 -13 -7 -36 -11
-51 -3 -16 -6 -62 -6 -102 0 -159 84 -254 232 -261 36 -2 110 -6 165 -8 114
-5 164 -17 201 -50 60 -51 35 -146 -159 -605 -162 -380 -168 -421 -75 -515 91
-92 174 -233 223 -380 30 -91 31 -124 4 -229 -11 -45 -22 -94 -24 -109 -2 -15
-6 -35 -9 -45 -3 -10 -8 -38 -11 -63 -3 -25 -10 -67 -15 -95 -10 -51 -13 -78
-27 -240 -10 -112 -10 -616 0 -749 l7 -98 -121 6 c-66 4 -137 9 -158 11 -155
19 -215 28 -276 40 -38 8 -81 16 -95 18 -118 22 -442 124 -534 168 -22 10 -43
19 -48 19 -17 0 -277 134 -381 197 -103 62 -290 191 -351 243 -223 189 -337
304 -492 496 -220 273 -418 639 -526 969 -34 103 -93 331 -102 390 -4 22 -8
47 -11 55 -4 15 -8 40 -20 135 -4 28 -9 61 -11 75 -29 177 -22 646 12 848 6
38 26 140 38 205 44 219 153 520 273 754 412 805 1138 1397 2009 1636 247 68
471 101 726 105 l146 2 8 -52z m1564 -1254 c93 -14 224 -53 214 -63 -3 -3
-162 -6 -352 -6 -191 -1 -432 -4 -537 -8 -170 -7 -187 -6 -159 7 27 12 62 21
164 43 28 6 155 24 210 30 30 3 56 7 58 8 11 9 331 1 402 -11z m-41 -310 c29
-37 27 -78 -5 -103 -37 -29 -78 -27 -103 5 -28 35 -26 65 4 98 32 35 76 35
104 0z m1039 -2124 c17 -25 47 -80 66 -122 39 -86 33 -99 -26 -51 -78 64 -115
128 -125 216 l-6 51 30 -24 c17 -14 44 -45 61 -70z m-2491 -2672 c-3 -8 -6 -5
-6 6 -1 11 2 17 5 13 3 -3 4 -12 1 -19z"/>
<path d="M2251 2046 c-21 -23 -23 -30 -17 -104 l6 -80 -62 -4 c-35 -3 -64 -5
-65 -4 -1 1 -7 35 -14 76 -17 112 -66 152 -118 96 -23 -25 -24 -56 -5 -158 5
-25 3 -27 -53 -38 -32 -7 -73 -18 -90 -26 l-33 -13 -41 69 c-42 72 -75 94
-115 79 -12 -4 -26 -21 -32 -38 -10 -28 -7 -39 23 -96 l34 -65 -42 -21 c-23
-12 -49 -28 -58 -35 -14 -13 -22 -9 -69 36 -29 27 -55 51 -59 51 -59 12 -88
-15 -82 -78 1 -12 123 -139 163 -171 13 -10 25 -11 57 -2 23 6 41 15 41 20 0
4 51 34 113 64 168 84 307 115 533 119 127 3 137 12 129 122 -14 181 -17 190
-55 210 -41 21 -63 19 -89 -9z"/>
</g>
</svg>
