<?xml version="1.0" encoding="utf-8"?>
<!-- Generator: Adobe Illustrator 24.0.2, SVG Export Plug-In . SVG Version: 6.00 Build 0)  -->
<svg version="1.1" id="Ebene_1" xmlns="http://www.w3.org/2000/svg" xmlns:xlink="http://www.w3.org/1999/xlink" x="0px" y="0px"
	 viewBox="0 0 84.6 60.2" enable-background="new 0 0 84.6 60.2" xml:space="preserve">
<g>
	<path fill="#B79563" d="M74.5,22.2c-2.9-3.9-6.1-7.5-9.7-10.8c-2.5-2.3-5.9-5.9-9.5-5.9c-4.5,0-10,2.9-14.3,4.3
		c-6.1,1.9-12.2,3.9-18.3,5.8c-1.8,0.6-1,3.3,0.8,2.8c8.5-2.7,16.9-5.4,25.4-8.1c2.6-0.8,4.4-1.7,7.1-1.2c2.9,0.5,4.7,2.5,6.8,4.4
		c3.1,2.8,5.8,5.8,8.4,9.1c-3.8,2.3-7.6,4.5-11.4,6.8c-4.3,2.5-9,6.6-14.1,6.5c-5.5,0-10.3-4.7-14.3-8.1c-3.4-2.9-6.7-6-9.8-9.3
		c-1.3-1.3-3.3,0.7-2,2c1.5,1.6,3.1,3.2,4.7,4.7C16.1,28.5,14.6,37,14,44.9c-2.2,1.4-3.9,3.7-4.1,6.4c-0.1,1.8,0.8,2.8,2.5,3.1
		c1.5,0.3,3.1,0.4,4.6-0.2c2.9-1.1,3.8-5.3,2.6-8c-0.5-1.1-1.5-1.7-2.6-1.6c0-0.1-0.1-0.1-0.1-0.2c0.5-6.5,1.6-14.1,8.3-16.8
		c0.5-0.2,0.7-0.5,0.9-0.9c0.6,0.5,1.1,1,1.7,1.5c-0.2,0.2-0.3,0.5-0.3,0.9c0,4.9,0,9.8,0,14.7c0,2.2-0.3,4.4,1.6,5.9
		c1.5,1.1,3.7,1,5.5,1.1c5,0.4,10.1,0.4,15.1,0.4c4.7,0,9.4-0.1,14.1-0.3c1.9-0.1,4.7,0.4,6.3-0.9c2.1-1.7,1.7-4.6,1.6-7
		c-0.1-4.7-0.4-9.5-0.5-14.2c-0.1-1.8-2.9-1.9-2.9,0c0.1,2.7,0.2,5.4,0.3,8.1c0.1,2.9,1.1,7.2-0.6,9.6c-1.7,2.4-5.6,1.6-8.5,1.7
		c-3.2,0.1-6.5,0.1-9.7,0.2c-2.9,0-5.8,0-8.7-0.1c-2.4-0.1-6.5,0.5-8.6-0.4c-3.7-1.6-2.3-12.5-2.1-17.4c0.7,0.6,1.3,1.1,2,1.6
		c3.6,2.9,7.6,6.3,12.3,6.8c4.5,0.5,8.4-2.3,12-4.5c5.8-3.4,11.6-6.9,17.4-10.3C74.6,23.8,75,22.8,74.5,22.2z M14.9,51.8
		c-0.7,0-1.4-0.3-2.1-0.2c0,0,0,0,0,0c0,0,0-0.1,0-0.1c0.1-0.1,0.1-0.5,0.2-0.8c0.6,0.6,1.7,0.7,2.3-0.2c0.5-0.7,1-1.5,1.5-2.2
		c0.1-0.1,0.1-0.2,0.2-0.3c0,0.2,0.1,0.3,0.1,0.4C17.2,50.2,16.9,51.7,14.9,51.8z"/>
</g>
</svg>
