<?xml version="1.0" encoding="utf-8"?>
<!-- Generator: Adobe Illustrator 24.0.2, SVG Export Plug-In . SVG Version: 6.00 Build 0)  -->
<svg version="1.1" id="Ebene_1" xmlns="http://www.w3.org/2000/svg" xmlns:xlink="http://www.w3.org/1999/xlink" x="0px" y="0px"
	 viewBox="0 0 84.6 60.2" enable-background="new 0 0 84.6 60.2" xml:space="preserve">
<path fill="#B79563" d="M70.1,15.8C67.9,9,58.8,8,52.9,8.4c-5.8,0.3-11.3,2.5-15,6.7c-0.6-4.5-2.9-8.6-7.3-10.6
	C25,1.9,18.3,3.6,15.5,9.3c-3.2,6.7,0.1,13.9,3.1,20c4.5,9.4,10.1,18.1,15.7,26.9c0.6,1,1.9,0.9,2.5,0c6.2-8.9,14.1-15.3,22.2-22.3
	C63.6,29.9,72.4,23,70.1,15.8z M66.6,21.4c-1.1,2.9-4.6,5.7-6.8,7.9c-8.4,7.9-17.2,14.4-24.2,23.6C30,44.2,24.5,35.5,20.2,26
	C17.4,19.9,14,9.4,23,6.7c8.3-2.5,12.8,5.9,12.1,13c-0.1,0.8,0.4,1.3,1.1,1.4c0.6,0.2,1.3,0.1,1.6-0.6c3.5-7.2,11.1-9.6,18.7-9.2
	C62.2,11.6,69.5,13.8,66.6,21.4z"/>
</svg>
