<?xml version="1.0" encoding="utf-8"?>
<!-- Generator: Adobe Illustrator 24.0.2, SVG Export Plug-In . SVG Version: 6.00 Build 0)  -->
<svg version="1.1" id="Ebene_1" xmlns="http://www.w3.org/2000/svg" xmlns:xlink="http://www.w3.org/1999/xlink" x="0px" y="0px"
	 viewBox="0 0 84.6 60.2" enable-background="new 0 0 84.6 60.2" xml:space="preserve">
<path fill="#B79563" d="M70.6,25.4c-3.3,0.2-6.6,0.4-9.9,0.6c-4,0.2-6.3,1.5-7.7-2.6c-2.2-6.6-3.2-13.8-4.7-20.6
	c-0.3-1.2-2.1-1.4-2.6-0.3C42,9.2,37.9,15.5,35.2,22.7c-7.3-0.3-14.4-0.3-21.6,1c-1.3,0.3-1.2,2-0.3,2.6c3.6,2.6,7.2,5.3,10.8,7.9
	c0.6,0.5,5.1,3.1,5.1,3.2c0.1,0.5-1,2-1.2,2.3c-2.5,4.5-5.6,8.6-8,13.2c-0.5,1,0.4,2.6,1.6,2.1c7.4-2.6,14.8-5.4,22.2-8
	c0.2,0.2,0.4,0.4,0.7,0.8c1.2,1.5,2.9,2.8,4.3,4.1c3.1,2.7,6.5,5.6,10.6,6.4c1,0.2,2.2-0.7,1.8-1.8c-1.7-4.5-3-9.3-4-14
	c-0.8-3.8,1.2-4.1,4.3-6.5c3.4-2.7,6.8-5.5,10.2-8.2C72.6,27.1,71.8,25.3,70.6,25.4z M43.5,46.9C43.4,46.9,43.4,46.8,43.5,46.9
	L43.5,46.9z M56,36.8c-2,1.7-2.1,1.5-2.1,3.7c0,4.4,1.8,9.7,3.5,14.1c-4.7-2.1-8.9-6.7-12.3-10.3c-0.3-0.4-0.9-0.5-1.4-0.4
	c-6.5,2.3-12.9,4.6-19.4,7c1.1-1.8,2.2-3.5,3.3-5.2c1.3-2,3.9-5,4.2-7.4c0.3-2-0.4-2.3-2.2-3.6c-4-2.9-8-5.9-12-8.8
	c6.2-0.8,12.4-0.6,18.6-0.4c0.7,0,1.1-0.4,1.3-0.9c0-0.1,0.1-0.1,0.1-0.2c2.1-6.2,5.5-11.7,8.7-17.4c0.8,3.6,1.6,7.2,2.5,10.8
	c0.6,2.7,0.7,8.1,2.9,10.3c1.4,1.4,3.2,1,5,0.9c3.2-0.2,6.3-0.4,9.5-0.6C62.7,31.3,59.3,34,56,36.8z"/>
</svg>
