<?xml version="1.0" encoding="utf-8"?>
<!-- Generator: Adobe Illustrator 24.0.2, SVG Export Plug-In . SVG Version: 6.00 Build 0)  -->
<svg version="1.1" id="Ebene_1" xmlns="http://www.w3.org/2000/svg" xmlns:xlink="http://www.w3.org/1999/xlink" x="0px" y="0px"
	 viewBox="0 0 91.3 90" enable-background="new 0 0 91.3 90" xml:space="preserve">
<g>
	<g>
		<path fill="#A3D9EA" d="M90.7,30.5c-0.3-4.3-1.6-11.7-6-13.4c-6.2-2.4-9.9,1.9-13,5.5c-2.4,2.8-4.6,5.4-7.6,5.4
			c-5.1,0-8.7-2.9-10.5-4.8c2-0.1,5.2-0.2,8.9-0.1c-0.4,0.5-0.6,1.2-0.5,1.9c0.1,1.5,1.4,2.5,2.9,2.4c1.5-0.2,2.5-1.4,2.4-2.9
			c0-0.5-0.2-0.9-0.5-1.2h0.7h0.1c1.8-0.1,4.2-0.4,4.7-1.9c0.2-0.7-0.1-1.4-0.7-1.8c-4.8-3.3-14.7-1.8-18.6-0.1
			c-1.7,0.7-2.6,1.6-2.7,2.5c0,0.3,0,0.5,0.2,0.7c0,0.1,0.1,0.1,0.1,0.2c0.2,0.3,5,7.2,13.6,7.2h0.1c4.1,0,6.7-3.2,9.3-6.1
			c3.1-3.7,5.7-6.8,10.6-5c2.4,0.9,4.2,5.3,4.7,11.5c0.9,10.4-1.8,22.3-5.4,24.5c-0.8-2.5-1.9-4.4-2.9-5.3c-1.2-1.1-2.1-1.1-2.7-0.9
			c-0.7,0.3-1.2,1-1.4,1.9c-0.2,1.7,0.7,4.3,3,5.7c0.8,0.6,1.6,0.8,2.3,0.9c0.2,1.4,0.3,3,0.2,4.7c-0.5,5.1-3.7,12.5-15.4,19.5
			c-5,3-10.9,4.9-17,5.5c-1,0.1-2,0.2-3.1,0.2c0.1,0.7,0.1,1.4,0.2,2.2h0c1,0,2.1-0.1,3.1-0.2c6.4-0.7,12.6-2.7,17.9-5.8
			C80,76,83.3,67.9,83.9,62.4c0.2-1.9,0.1-3.6-0.2-5.1c0.2-0.1,0.4-0.2,0.5-0.3C89.1,54.2,91.6,40.8,90.7,30.5 M81,55.2
			c-0.1-0.1-0.3-0.2-0.5-0.3c-1.2-0.8-1.7-1.9-1.9-2.4c-0.2-0.7-0.2-1.1-0.2-1.4c0.1,0.1,0.3,0.2,0.4,0.3
			C79.5,52.1,80.3,53.3,81,55.2 M65,23.8c0.5-0.1,1,0.3,1.1,0.9c0.1,0.5-0.3,1-0.9,1.1c-0.5,0.1-1-0.3-1.1-0.9
			C64.2,24.4,64.6,23.9,65,23.8 M54.7,21.2c0.5-0.2,1.1-0.4,1.8-0.5c4.2-1,9.7-1.3,13,0.3c-0.4,0.1-1.1,0.2-2,0.2
			c-2.3-0.1-4.5-0.1-6.4-0.1C58.6,21.2,56.4,21.2,54.7,21.2"/>
	</g>
	<g>
		<defs>
			<path id="SVGID_1_" d="M29.5,64.1c-0.5,0.1-0.8,0.5-0.8,1l0.2,1.8c-0.5,0-1.1,0-1.7,0.1l-0.2-1.8c-0.1-0.5-0.5-0.8-1-0.7
				c-0.5,0.1-0.8,0.5-0.7,1l0.2,1.8c-0.7,0.2-1.6,0.3-2.4,0.7l-0.9-1.6c-0.2-0.4-0.7-0.6-1.2-0.4c-0.4,0.2-0.6,0.7-0.4,1.2l0.8,1.5
				c-0.6,0.2-1.2,0.6-1.6,0.9l-1.2-1.1c-0.3-0.3-0.9-0.3-1.2,0c-0.3,0.3-0.3,0.9,0,1.2l1.9,1.8c0.2,0.2,0.4,0.2,0.6,0.2
				s0.3-0.1,0.5-0.2c3.7-2.8,8.1-2.8,9.8-2.7c0.2,0,0.5-0.1,0.7-0.2c0.2-0.2,0.2-0.4,0.2-0.7l-0.2-2.8c-0.1-0.4-0.6-0.8-1-0.8
				C29.6,64,29.6,64,29.5,64.1 M2.8,49.4c-1.2-11.3,2.1-22.3,9.3-31.1C19.3,9.5,29.4,4,40.7,2.8c1.6-0.2,3.3-0.2,4.9-0.2
				C45.9,5.5,46.9,16,46,20.1c-0.4,1.9-2,5.1-3.6,8.4c-3.7,7.5-5.9,12.7-4.3,15.3c0.4,0.7,1.4,1.5,3.3,1.4c3.1-0.2,4,0.5,4.3,0.8
				c0.7,0.9-0.3,3.2-1.2,5.4c-0.1,0.3-0.3,0.7-0.4,1c-0.6,1.4-1.1,2.6-1.5,3.5c-1.1,2.5-1.8,4-0.2,5.2c1.1,0.9,3,4.1,3.2,6.2
				c0.1,0.5-0.1,1.2-0.4,2.3c-0.6,2.7-1.8,7.7-0.9,18C22.7,87.1,5,71,2.8,49.4 M44.7,0.4c-1.4,0-2.8,0.1-4.2,0.2
				c-11.9,1.2-22.5,7-30,16.2c-6.5,8.1-10,17.8-10,28v0.3c0,1.5,0.1,2.9,0.2,4.4c1.2,11.1,6.4,21.3,14.8,28.7
				c8.2,7.3,18.7,11.3,29.6,11.3h1.5c-1-10.7,0.1-16.7,0.7-19.7c0.3-1.2,0.5-2.1,0.4-3c-0.3-2.7-2.4-6.4-4-7.7
				c-0.2-0.2-0.2-0.5,0.8-2.7c0.4-0.9,1-2.1,1.6-3.6c0.1-0.3,0.3-0.7,0.4-1c1.2-2.9,2.3-5.5,1-7.4c-1-1.4-2.9-1.9-6.1-1.8
				c-0.7,0-1.2-0.1-1.4-0.4c-1.2-1.8,2.2-8.6,4.4-13.1c1.7-3.5,3.3-6.7,3.8-8.9c0.9-4.4-0.1-18.5-0.9-19.5c-0.1-0.2-0.4-0.4-0.7-0.4
				c-0.5,0-1,0-1.5,0H44.7z"/>
		</defs>
		<clipPath id="SVGID_2_">
			<use xlink:href="#SVGID_1_"  overflow="visible"/>
		</clipPath>
		
			<linearGradient id="SVGID_3_" gradientUnits="userSpaceOnUse" x1="-51.5355" y1="200.5399" x2="-49.4879" y2="200.5399" gradientTransform="matrix(15.4959 -6.0105 -6.0105 -15.4959 2020.2227 2846.0447)">
			<stop  offset="0" style="stop-color:#B79663"/>
			<stop  offset="3.296700e-02" style="stop-color:#B79663"/>
			<stop  offset="0.4835" style="stop-color:#E3DBC6"/>
			<stop  offset="1" style="stop-color:#B79663"/>
		</linearGradient>
		<polygon clip-path="url(#SVGID_2_)" fill="url(#SVGID_3_)" points="-29.6,12.1 42.5,-15.9 78.9,77.9 6.8,105.9 		"/>
	</g>
</g>
</svg>
