<?xml version="1.0" encoding="UTF-8"?>
<svg enable-background="new 0 0 91.3 90" version="1.1" viewBox="0 0 91.3 90" xml:space="preserve" xmlns="http://www.w3.org/2000/svg" xmlns:cc="http://creativecommons.org/ns#" xmlns:dc="http://purl.org/dc/elements/1.1/" xmlns:rdf="http://www.w3.org/1999/02/22-rdf-syntax-ns#" xmlns:xlink="http://www.w3.org/1999/xlink">
		<path d="m90.7 30.5c-0.3-4.3-1.6-11.7-6-13.4-6.2-2.4-9.9 1.9-13 5.5-2.4 2.8-4.6 5.4-7.6 5.4-5.1 0-8.7-2.9-10.5-4.8 2-0.1 5.2-0.2 8.9-0.1-0.4 0.5-0.6 1.2-0.5 1.9 0.1 1.5 1.4 2.5 2.9 2.4 1.5-0.2 2.5-1.4 2.4-2.9 0-0.5-0.2-0.9-0.5-1.2h0.8c1.8-0.1 4.2-0.4 4.7-1.9 0.2-0.7-0.1-1.4-0.7-1.8-4.8-3.3-14.7-1.8-18.6-0.1-1.7 0.7-2.6 1.6-2.7 2.5 0 0.3 0 0.5 0.2 0.7 0 0.1 0.1 0.1 0.1 0.2 0.2 0.3 5 7.2 13.6 7.2h0.1c4.1 0 6.7-3.2 9.3-6.1 3.1-3.7 5.7-6.8 10.6-5 2.4 0.9 4.2 5.3 4.7 11.5 0.9 10.4-1.8 22.3-5.4 24.5-0.8-2.5-1.9-4.4-2.9-5.3-1.2-1.1-2.1-1.1-2.7-0.9-0.7 0.3-1.2 1-1.4 1.9-0.2 1.7 0.7 4.3 3 5.7 0.8 0.6 1.6 0.8 2.3 0.9 0.2 1.4 0.3 3 0.2 4.7-0.5 5.1-3.7 12.5-15.4 19.5-5 3-10.9 4.9-17 5.5-1 0.1-2 0.2-3.1 0.2 0.1 0.7 0.1 1.4 0.2 2.2 1 0 2.1-0.1 3.1-0.2 6.4-0.7 12.6-2.7 17.9-5.8 12.3-7.4 15.6-15.5 16.2-21 0.2-1.9 0.1-3.6-0.2-5.1 0.2-0.1 0.4-0.2 0.5-0.3 4.9-2.8 7.4-16.2 6.5-26.5m-9.7 24.7c-0.1-0.1-0.3-0.2-0.5-0.3-1.2-0.8-1.7-1.9-1.9-2.4-0.2-0.7-0.2-1.1-0.2-1.4 0.1 0.1 0.3 0.2 0.4 0.3 0.7 0.7 1.5 1.9 2.2 3.8m-16-31.4c0.5-0.1 1 0.3 1.1 0.9 0.1 0.5-0.3 1-0.9 1.1-0.5 0.1-1-0.3-1.1-0.9 0.1-0.5 0.5-1 0.9-1.1m-10.3-2.6c0.5-0.2 1.1-0.4 1.8-0.5 4.2-1 9.7-1.3 13 0.3-0.4 0.1-1.1 0.2-2 0.2-2.3-0.1-4.5-0.1-6.4-0.1-2.5 0.1-4.7 0.1-6.4 0.1" fill="#A3D9EA"/>
		<defs>
			<path id="SVGLOGO_MOBILE_1" d="m29.5 64.1c-0.5 0.1-0.8 0.5-0.8 1l0.2 1.8c-0.5 0-1.1 0-1.7 0.1l-0.2-1.8c-0.1-0.5-0.5-0.8-1-0.7s-0.8 0.5-0.7 1l0.2 1.8c-0.7 0.2-1.6 0.3-2.4 0.7l-0.9-1.6c-0.2-0.4-0.7-0.6-1.2-0.4-0.4 0.2-0.6 0.7-0.4 1.2l0.8 1.5c-0.6 0.2-1.2 0.6-1.6 0.9l-1.2-1.1c-0.3-0.3-0.9-0.3-1.2 0s-0.3 0.9 0 1.2l1.9 1.8c0.2 0.2 0.4 0.2 0.6 0.2s0.3-0.1 0.5-0.2c3.7-2.8 8.1-2.8 9.8-2.7 0.2 0 0.5-0.1 0.7-0.2 0.2-0.2 0.2-0.4 0.2-0.7l-0.2-2.8c-0.1-0.4-0.6-0.8-1-0.8-0.3-0.3-0.3-0.3-0.4-0.2m-26.7-14.7c-1.2-11.3 2.1-22.3 9.3-31.1s17.3-14.3 28.6-15.5c1.6-0.2 3.3-0.2 4.9-0.2 0.3 2.9 1.3 13.4 0.4 17.5-0.4 1.9-2 5.1-3.6 8.4-3.7 7.5-5.9 12.7-4.3 15.3 0.4 0.7 1.4 1.5 3.3 1.4 3.1-0.2 4 0.5 4.3 0.8 0.7 0.9-0.3 3.2-1.2 5.4-0.1 0.3-0.3 0.7-0.4 1-0.6 1.4-1.1 2.6-1.5 3.5-1.1 2.5-1.8 4-0.2 5.2 1.1 0.9 3 4.1 3.2 6.2 0.1 0.5-0.1 1.2-0.4 2.3-0.6 2.7-1.8 7.7-0.9 18-21.6-0.5-39.3-16.6-41.5-38.2m41.9-49c-1.4 0-2.8 0.1-4.2 0.2-11.9 1.2-22.5 7-30 16.2-6.5 8.1-10 17.8-10 28v0.3c0 1.5 0.1 2.9 0.2 4.4 1.2 11.1 6.4 21.3 14.8 28.7 8.2 7.3 18.7 11.3 29.6 11.3h1.5c-1-10.7 0.1-16.7 0.7-19.7 0.3-1.2 0.5-2.1 0.4-3-0.3-2.7-2.4-6.4-4-7.7-0.2-0.2-0.2-0.5 0.8-2.7 0.4-0.9 1-2.1 1.6-3.6 0.1-0.3 0.3-0.7 0.4-1 1.2-2.9 2.3-5.5 1-7.4-1-1.4-2.9-1.9-6.1-1.8-0.7 0-1.2-0.1-1.4-0.4-1.2-1.8 2.2-8.6 4.4-13.1 1.7-3.5 3.3-6.7 3.8-8.9 0.9-4.4-0.1-18.5-0.9-19.5-0.1-0.2-0.4-0.4-0.7-0.4h-1.5-0.4z"/>
		</defs>
		<clipPath id="SVGLOGO_MOBILE_2">
			<use overflow="visible" xlink:href="#SVGLOGO_MOBILE_1"/>
		</clipPath>
		<linearGradient id="SVGLOGO_MOBILE_3" x1="-51.536" x2="-49.488" y1="200.54" y2="200.54" gradientTransform="matrix(15.496 -6.0105 -6.0105 -15.496 2020.2 2846)" gradientUnits="userSpaceOnUse">
			<stop stop-color="#B79663" offset="0"/>
			<stop stop-color="#B79663" offset=".032967"/>
			<stop stop-color="#E3DBC6" offset=".4835"/>
			<stop stop-color="#B79663" offset="1"/>
		</linearGradient>
		<polygon points="-29.6 12.1 42.5 -15.9 78.9 77.9 6.8 105.9" clip-path="url(#SVGLOGO_MOBILE_2)" fill="url(#SVGLOGO_MOBILE_3)"/>
</svg>
