<?xml version="1.0" encoding="utf-8"?>
<!-- Generator: Adobe Illustrator 24.0.2, SVG Export Plug-In . SVG Version: 6.00 Build 0)  -->
<svg version="1.1" id="Ebene_1" xmlns="http://www.w3.org/2000/svg" xmlns:xlink="http://www.w3.org/1999/xlink" x="0px" y="0px"
	 viewBox="0 0 84.6 60.2" enable-background="new 0 0 84.6 60.2" xml:space="preserve">
<path fill="#B79563" d="M77.4,29.6c-5.1-3.2-10.2-6.4-15.3-9.5c-4.1-2.6-8.5-6.2-13.3-7.3c-2.2-0.5-4.4-0.4-6.4,0.2c0,0-0.1,0-0.1,0
	c-1.6,0.2-3,0.8-4.2,1.7c-10.5,1.5-18.5,8.7-24.7,16.9c-1.1,1.5,1.4,2.9,2.5,1.5c4.3-5.6,11.6-12.5,19.4-15.1
	c-0.2,0.4-0.4,0.8-0.6,1.2c-0.6,1-1.2,2.1-1.6,3.2c-1.8,5.2,0.1,11.8,5.2,14.1c2,1.5,4.5,2.4,7.2,2.1c6.2-0.6,11.9-6.7,11.4-13
	c-0.3-4.8-3.5-7.8-7.5-9.5c3.7,1.3,7.3,4,10.4,5.9c4.3,2.7,8.7,5.4,13,8.1c-0.9,0-1.6,0.8-1.6,1.7c0,0.5,0.2,0.9,0.5,1.2
	C54.1,45.7,23.1,52.3,9.3,32.2c-1-1.5-3.5-0.1-2.5,1.5c16,23.4,52.9,14.1,70.9-1.8C78.4,31.2,78.1,30.1,77.4,29.6z M52.7,30.6
	c-0.7,1.2-1.8,2.4-3.1,3.3c1.9-1.9,3.1-4.6,3.3-7.3c0.1-1.5-0.2-3.2-0.7-4.9C54.1,24.1,54.6,27.3,52.7,30.6z M49.6,23
	c0.9,4.1-0.1,7.9-3.8,10c-2.5,1.5-5.1,1.2-7.1-0.1c-2.6-2.9-3.5-7.7-2.3-11.3c0.7-1.5,1.8-2.8,3-3.8c2.3-1.1,6.3-0.7,7.8,0.8
	C48.4,19.7,49.2,21.5,49.6,23z"/>
</svg>
