<?xml version="1.0" encoding="utf-8"?>
<!-- Generator: Adobe Illustrator 24.0.2, SVG Export Plug-In . SVG Version: 6.00 Build 0)  -->
<svg version="1.1" id="Ebene_1" xmlns="http://www.w3.org/2000/svg" xmlns:xlink="http://www.w3.org/1999/xlink" x="0px" y="0px"
	 viewBox="0 0 84.6 60.2" enable-background="new 0 0 84.6 60.2" xml:space="preserve">
<path fill="#B79563" d="M82.2,24.1c-6.4-6.5-16.7-11.3-25.7-11.3c-2.7,0-5.2,0.5-7.8,1.4c-2,0.7-4.3,2.4-6.3,2.8
	c-2.7,0.4-6.1-1.5-8.8-2c-2.5-0.5-5-0.6-7.6-0.4C17.3,15.2,9.3,20.1,4,27.1c-1.4,1.9-4,4.6-2.8,7c0.8,1.5,4,2.9,5.3,3.8
	c1.6,1.1,3.2,2,4.9,2.9c2.3,1.3,4.9,2.3,7.3,3.1c7.8,2.8,16.2,3.9,24.5,3.3c15.2-1.2,29.2-8.4,39.4-19.6c0.1-0.1,0.2-0.1,0.3-0.2
	c0.3-0.2,0.6-0.6,0.6-0.9C84.1,25.5,83.5,23.9,82.2,24.1z M13.2,22.2c8-5.6,16.6-5.7,25.6-2.6c2.1,0.7,2.6,0.8,4.7,0.1
	c4.7-1.7,8-3.9,13.2-4c7.7,0,16.7,4,22.7,9.5c-5,1.8-10,3-15.1,3.8c-6.8-0.4-13.7-2.2-20.4-2.9c-12.9-1.4-25.4,2.8-38.3,3.2
	C7.2,26.6,11.6,23.3,13.2,22.2z M52.2,30.3c-8.8,0.5-17.7,0.2-26.6-0.2c7.7-1,15.5-1.7,23.5-0.3C50.2,30,51.2,30.2,52.2,30.3z
	 M37.5,44.4c-8.5-0.2-17.1-2.2-24.6-6.2c-2.7-1.4-5.1-4.1-7.9-5.5c-0.1-0.2-0.2-0.4-0.2-0.5c13.7,0.2,27.3,2.1,41,1.7
	c6.5-0.2,13-0.8,19.4-2c3.3,0.1,6.5-0.1,9.6-0.9C64.5,39.7,51.3,44.7,37.5,44.4z"/>
</svg>
